<svg id="Layer_1" data-name="Layer 1" xmlns="http://www.w3.org/2000/svg" viewBox="0 0 4023.36 567.48"><defs><style>.cls-1{fill:#fff;}</style></defs><title>logo</title><path class="cls-1" d="M224.28,0H0V96.14H222.84c52.89,0,95.92,52.36,95.92,116.71s-43,116.69-95.92,116.69H0V567.48H110.45V425.64H224.38c112.55-.76,204.11-96.22,204.11-212.79S336.93.79,224.28,0Z"/><path class="cls-1" d="M1103.23,205.68C1103.23,91.13,1013.26.8,898.3,0H674.73V96.14H897.58c54.68,0,95.92,47.09,95.92,109.54S952.26,315.2,897.58,315.2H674.73V567.48H784.48V411.33h102.2L992,567.48h124.6L995.18,388C1062.28,352.64,1103.23,284.34,1103.23,205.68Z"/><rect class="cls-1" x="1349.46" y="0.03" width="109.7" height="567.45"/><polygon class="cls-1" points="2277.52 95.82 2444.28 96.12 2444.27 567.48 2554.01 567.48 2554.01 96.14 2720.19 96.14 2720.19 0 2277.52 0.82 2277.52 95.82"/><rect class="cls-1" x="2895.39" y="224.94" width="336.79" height="96.84"/><rect class="cls-1" x="2895.39" y="0.03" width="387.68" height="96.12"/><rect class="cls-1" x="2895.39" y="471.36" width="387.68" height="96.12"/><polygon class="cls-1" points="3913.63 0.03 3913.63 393.38 3648.13 0.03 3515.43 0.03 3904.32 567.48 4023.36 567.48 4023.36 0.03 3913.63 0.03"/><polygon class="cls-1" points="3528.99 567.48 3639.41 567.48 3639.41 299.12 3528.99 298.69 3528.99 567.48"/><path class="cls-1" d="M2105.62,322.2a154.57,154.57,0,0,0-56.48-48.54,342.25,342.25,0,0,0-66.31-25.39c-21.7-5.89-44.07-11.54-66.51-16.81A365.91,365.91,0,0,1,1861,214.13c-13.24-5.43-23.74-12.53-31.22-21.12-5.51-6.33-8.19-15.61-8.19-28.36,0-11.7,2.88-21.48,9.07-30.76s16.51-16.95,30.92-23.18c16.27-7,38-10.58,64.58-10.58,18.73,0,38.64,3,59.16,8.88a197.14,197.14,0,0,1,56.69,26.7l33,22.5,41.86-90.35L2094.32,51.5c-21.72-15.73-47.93-28.3-77.93-37.33A312.93,312.93,0,0,0,1926.17.79C1881,.79,1842.83,8,1812.61,22.31c-31.66,15-55.62,35.36-71.22,60.57A154.3,154.3,0,0,0,1718,165.36c0,32.57,7.53,60.14,22.38,81.94a150.09,150.09,0,0,0,56.45,49.37,336.74,336.74,0,0,0,67.18,25.43c22.14,5.9,44.41,11.52,66.18,16.72A375.49,375.49,0,0,1,1985,356.2c13.38,5.48,24.08,12.68,31.82,21.38,5.59,6.29,8.31,15.49,8.31,28.1a48.9,48.9,0,0,1-9.07,29.18c-6.27,9.05-16.89,16.73-31.56,22.83-16.6,6.9-39.29,10.4-67.45,10.4a211.4,211.4,0,0,1-80.32-15.41c-24.79-10.11-44.22-22.29-57.73-36.18l-30.56-31.41-51.89,85.75,16.9,18.69c21.34,23.6,51.15,42.8,88.58,57.06,36.27,13.83,75.2,20.84,115.72,20.84,45.48,0,83.93-7.06,114.27-21,31.92-14.66,56.28-35,72.42-60.39a151.62,151.62,0,0,0,24.25-82.46c0-32.31-7.75-59.69-23.06-81.37Z"/></svg>